#!OML:ASF H:\BabyWalks\Project 1\Capture day 1\Session 1\baby.ASF
:FULLY-SPECIFIED
:DEGREES
713
root 25.7956 17.4879 0.234076 5.85266 102.577 -3.36975
lowerback 19.9991 -0.923169 2.08612
upperback 7.06358 -0.159 1.70727
thorax -3.5568 0.156655 0.652141
lowerneck 0.322707 -4.03064 2.96708
upperneck -2.96113 -5.41025 -2.66479
head -1.1327 -2.70106 -1.25904
rclavicle 1.55052e-014 -1.74931e-014
rhumerus -44.8043 5.38608 -80.2231
rradius 44.4216
rwrist -4.88178
rhand -12.2437 -16.1905
rfingers 7.12502
rthumb 13.8221 -45.7112
lclavicle 1.55052e-014 -1.74931e-014
lhumerus -44.3553 -4.02527 79.1636
lradius 52.021
lwrist 0.364496
lhand -3.09381 8.43204
lfingers 7.12502
lthumb 22.6239 37.1261
rfemur -32.2313 0.0675784 19.0435
rtibia 38.5377
rfoot -13.1519 -8.85915
rtoes 2.55791
lfemur 8.61206 -4.34963 -13.1945
ltibia 5.08889e-014
lfoot -20.2241 -4.27249
ltoes -7.0759
714
root 25.7893 17.49 0.229612 5.86788 102.576 -3.33177
lowerback 19.984 -0.914624 2.08891
upperback 7.05257 -0.148868 1.709
thorax -3.56081 0.161043 0.650051
lowerneck 0.312046 -4.02492 2.96655
upperneck -2.93238 -5.40269 -2.67352
head -1.12189 -2.69727 -1.26227
rclavicle -8.74653e-015 4.37326e-014
rhumerus -44.8228 5.3874 -80.2397
rradius 44.4167
rwrist -4.86143
rhand -12.2273 -16.1874
rfingers 7.12502
rthumb 13.8379 -45.7071
lclavicle -8.74653e-015 4.37326e-014
lhumerus -44.3848 -4.00171 79.117
lradius 51.9513
lwrist 0.349679
lhand -3.06856 8.44903
lfingers 7.12502
lthumb 22.6482 37.1402
rfemur -32.1753 0.0663095 19.0282
rtibia 38.4383
rfoot -13.1017 -8.84392
rtoes 2.55863
lfemur 8.61818 -4.34855 -13.2085
ltibia -6.36111e-014
lfoot -20.2124 -4.27212
ltoes -7.04749
715
root 25.7828 17.4922 0.225294 5.87961 102.576 -3.29822
lowerback 19.9681 -0.907946 2.08761
upperback 7.04334 -0.141852 1.7108
thorax -3.56249 0.163941 0.651071
lowerneck 0.303199 -4.01686 2.9664
upperneck -2.91128 -5.39196 -2.67912
head -1.1136 -2.69192 -1.26453
rclavicle 2.38542e-015 -1.27222e-014
rhumerus -44.8377 5.39964 -80.2565
rradius 44.4152
rwrist -4.84602
rhand -12.2092 -16.1822
rfingers 7.12502
rthumb 13.8554 -45.7007
lclavicle 2.38542e-015 -1.27222e-014
lhumerus -44.4095 -3.97024 79.0631
lradius 51.8851
lwrist 0.342239
lhand -3.04717 8.4724
lfingers 7.12502
lthumb 22.6687 37.161
rfemur -32.1215 0.0617994 19.0132
rtibia 38.3405
rfoot -13.052 -8.82663
rtoes 2.55262
lfemur 8.62292 -4.34816 -13.2235
ltibia -1.59028e-014
lfoot -20.2026 -4.26919
ltoes -7.04935
716
root 25.7763 17.4943 0.221026 5.89688 102.576 -3.26057
lowerback 19.9511 -0.903542 2.08646
upperback 7.03598 -0.137691 1.71245
thorax -3.56163 0.165528 0.65247
lowerneck 0.29402 -4.00723 2.96472
upperneck -2.89617 -5.37911 -2.67976
head -1.10685 -2.68556 -1.26495
rclavicle -4.37326e-015 -9.54166e-015
rhumerus -44.8491 5.41963 -80.2733
rradius 44.4178
rwrist -4.83725
rhand -12.1935 -16.1742
rfingers 7.12502
rthumb 13.8705 -45.6917
lclavicle -4.37326e-015 -9.54166e-015
lhumerus -44.4275 -3.92708 79.0001
lradius 51.8191
lwrist 0.333621
lhand -3.02552 8.4952
lfingers 7.12502
lthumb 22.6895 37.1813
rfemur -32.0705 0.0543383 19
rtibia 38.2449
rfoot -13.0019 -8.80933
rtoes 2.54441
lfemur 8.62566 -4.34875 -13.2374
ltibia 3.49861e-014
lfoot -20.1934 -4.26512
ltoes -7.07084
717
root 25.7697 17.4963 0.216836 5.90807 102.578 -3.23133
lowerback 19.9333 -0.900863 2.08267
upperback 7.02934 -0.136325 1.71323
thorax -3.55958 0.165751 0.655064
lowerneck 0.289041 -3.9974 2.96002
upperneck -2.89057 -5.36596 -2.67637
head -1.10357 -2.67902 -1.26342
rclavicle -1.98785e-015 -3.97569e-014
rhumerus -44.8592 5.44874 -80.29
rradius 44.4238
rwrist -4.83399
rhand -12.1767 -16.1629
rfingers 7.12502
rthumb 13.8867 -45.6793
lclavicle -1.98785e-015 -3.97569e-014
lhumerus -44.4424 -3.87379 78.9285
lradius 51.7554
lwrist 0.32326
lhand -3.0072 8.52162
lfingers 7.12502
lthumb 22.707 37.2056
rfemur -32.0228 0.0442247 18.9858
rtibia 38.1515
rfoot -12.9524 -8.79122
rtoes 2.52232
lfemur 8.62551 -4.34985 -13.2534
ltibia 0
lfoot -20.1863 -4.2591
ltoes -7.10899
718
root 25.763 17.4984 0.212714 5.9226 102.58 -3.20025
lowerback 19.9155 -0.89967 2.07889
upperback 7.02313 -0.136904 1.71324
thorax -3.55705 0.165043 0.657272
lowerneck 0.284952 -3.98794 2.95713
upperneck -2.88551 -5.35325 -2.67197
head -1.10065 -2.67273 -1.26185
rclavicle 4.77083e-015 -2.8625e-014
rhumerus -44.8689 5.48566 -80.3067
rradius 44.4325
rwrist -4.83814
rhand -12.16 -16.1485
rfingers 7.12502
rthumb 13.9028 -45.6638
lclavicle 4.77083e-015 -2.8625e-014
lhumerus -44.4559 -3.81738 78.8512
lradius 51.6959
lwrist 0.311785
lhand -2.99454 8.54972
lfingers 7.12502
lthumb 22.7192 37.2322
rfemur -31.9778 0.034607 18.9722
rtibia 38.0602
rfoot -12.9044 -8.77616
rtoes 2.5012
lfemur 8.62372 -4.35129 -13.2689
ltibia -9.54166e-015
lfoot -20.1808 -4.25116
ltoes -7.16472
719
root 25.7562 17.5003 0.208678 5.93951 102.582 -3.16889
lowerback 19.898 -0.898986 2.07674
upperback 7.01678 -0.137907 1.71198
thorax -3.55484 0.164145 0.657297
lowerneck 0.285662 -3.98101 2.95963
upperneck -2.88734 -5.34395 -2.67134
head -1.10113 -2.66811 -1.26219
rclavicle -2.34566e-014 3.4191e-014
rhumerus -44.881 5.5236 -80.3217
rradius 44.4454
rwrist -4.85011
rhand -12.145 -16.1355
rfingers 7.12502
rthumb 13.9173 -45.6497
lclavicle -2.34566e-014 3.4191e-014
lhumerus -44.4654 -3.7558 78.7674
lradius 51.6358
lwrist 0.290811
lhand -2.98645 8.56934
lfingers 7.12502
lthumb 22.727 37.2508
rfemur -31.9359 0.0260961 18.9586
rtibia 37.9714
rfoot -12.8601 -8.76168
rtoes 2.4923
lfemur 8.6188 -4.35332 -13.2837
ltibia -1.27222e-014
lfoot -20.1757 -4.24262
ltoes -7.21553
720
root 25.7493 17.5021 0.204728 5.96403 102.585 -3.13104
lowerback 19.8807 -0.897932 2.0771
upperback 7.01027 -0.138032 1.70951
thorax -3.55293 0.163699 0.654414
lowerneck 0.288905 -3.97699 2.96767
upperneck -2.89212 -5.33852 -2.67318
head -1.10334 -2.66544 -1.26413
rclavicle 1.03368e-014 -2.94201e-014
rhumerus -44.8946 5.55738 -80.3334
rradius 44.4597
rwrist -4.86488
rhand -12.1246 -16.1228
rfingers 7.12502
rthumb 13.9369 -45.6357
lclavicle 1.03368e-014 -2.94201e-014
lhumerus -44.4708 -3.69257 78.6788
lradius 51.5753
lwrist 0.261702
lhand -2.98556 8.58829
lfingers 7.12502
lthumb 22.7278 37.2697
rfemur -31.8964 0.0207114 18.9465
rtibia 37.8851
rfoot -12.8185 -8.75041
rtoes 2.48362
lfemur 8.61263 -4.35484 -13.2964
ltibia -1.90833e-014
lfoot -20.1721 -4.23465
ltoes -7.25329
721
root 25.7423 17.5038 0.200921 5.98555 102.588 -3.09675
lowerback 19.864 -0.897569 2.0754
upperback 7.00479 -0.13934 1.70703
thorax -3.55022 0.162706 0.652964
lowerneck 0.292942 -3.9747 2.9767
upperneck -2.89841 -5.33543 -2.67623
head -1.10631 -2.66393 -1.26655
rclavicle -1.23246e-014 -1.43125e-014
rhumerus -44.905 5.59157 -80.3402
rradius 44.472
rwrist -4.88235
rhand -12.104 -16.1132
rfingers 7.12502
rthumb 13.9568 -45.6247
lclavicle -1.23246e-014 -1.43125e-014
lhumerus -44.4726 -3.62628 78.5889
lradius 51.5156
lwrist 0.227079
lhand -2.99213 8.60533
lfingers 7.12502
lthumb 22.7215 37.2875
rfemur -31.8595 0.0167957 18.9337
rtibia 37.8022
rfoot -12.7789 -8.74312
rtoes 2.4818
lfemur 8.60549 -4.35725 -13.3093
ltibia -1.90833e-014
lfoot -20.1701 -4.22672
ltoes -7.27627
722
root 25.7353 17.5054 0.197317 6.01438 102.593 -3.05433
lowerback 19.8487 -0.897941 2.07314
upperback 7.00031 -0.141498 1.70543
thorax -3.5471 0.161344 0.652948
lowerneck 0.29228 -3.97361 2.98648
upperneck -2.89864 -5.33401 -2.68149
head -1.10672 -2.66327 -1.26992
rclavicle -1.27222e-014 -7.95139e-015
rhumerus -44.9124 5.62183 -80.3403
rradius 44.4816
rwrist -4.90028
rhand -12.0798 -16.1067
rfingers 7.12502
rthumb 13.9801 -45.6166
lclavicle -1.27222e-014 -7.95139e-015
lhumerus -44.4778 -3.56744 78.5006
lradius 51.4652
lwrist 0.197514
lhand -3.00827 8.62362
lfingers 7.12502
lthumb 22.706 37.3077
rfemur -31.8233 0.0165369 18.9227
rtibia 37.7228
rfoot -12.7427 -8.73916
rtoes 2.49093
lfemur 8.59892 -4.36071 -13.3189
ltibia 2.22639e-014
lfoot -20.1686 -4.22109
ltoes -7.27728
723
root 25.7283 17.5067 0.193873 6.03405 102.599 -3.0196
lowerback 19.8367 -0.896816 2.07309
upperback 6.99627 -0.141283 1.70062
thorax -3.54525 0.161227 0.647761
lowerneck 0.290104 -3.97626 2.99683
upperneck -2.89711 -5.33744 -2.67972
head -1.10624 -2.66515 -1.27113
rclavicle 1.55052e-014 -2.46493e-014
rhumerus -44.9189 5.63428 -80.3347
rradius 44.4868
rwrist -4.91442
rhand -12.0605 -16.1037
rfingers 7.12502
rthumb 13.9987 -45.6124
lclavicle 1.55052e-014 -2.46493e-014
lhumerus -44.4794 -3.52151 78.4123
lradius 51.4175
lwrist 0.168441
lhand -3.03287 8.64179
lfingers 7.12502
lthumb 22.6824 37.3288
rfemur -31.7878 0.0175601 18.9097
rtibia 37.6477
rfoot -12.7095 -8.73779
rtoes 2.50008
lfemur 8.59336 -4.36601 -13.3294
ltibia 3.49861e-014
lfoot -20.1671 -4.21724
ltoes -7.2633
